<svg xmlns="http://www.w3.org/2000/svg" width="16" height="16" fill="none" viewBox="0 0 16 16"><path fill="#2684ff" d="M15.623 7.552 8.738.667 8.07 0 .518 7.552a.634.634 0 0 0 0 .895l4.736 4.736L8.07 16l7.552-7.553a.633.633 0 0 0 0-.895m-7.552 2.813L5.706 8 8.07 5.634 10.436 8z"/><path fill="url(#a)" d="M8.073 5.634A3.983 3.983 0 0 1 8.057.018L2.88 5.193 5.698 8.01z"/><path fill="url(#b)" d="m10.44 7.995-2.372 2.371a3.983 3.983 0 0 1 0 5.636l5.189-5.19z"/><defs><linearGradient id="a" x1="7.057" x2="4.348" y1="3.836" y2="6.544" gradientUnits="userSpaceOnUse"><stop stop-color="#0052cc"/><stop offset="1" stop-color="#2684ff"/></linearGradient><linearGradient id="b" x1="9.114" x2="11.817" y1="12.139" y2="9.436" gradientUnits="userSpaceOnUse"><stop stop-color="#0052cc"/><stop offset="1" stop-color="#2684ff"/></linearGradient></defs></svg>
